<?xml version="1.0" encoding="us-ascii" standalone="no"?><svg xmlns="http://www.w3.org/2000/svg" xmlns:xlink="http://www.w3.org/1999/xlink" contentStyleType="text/css" height="764px" preserveAspectRatio="none" style="width:459px;height:764px;background:#FFFFFF;" version="1.1" viewBox="0 0 459 764" width="459px" zoomAndPan="magnify"><defs/><g><!--cluster ba39a5f0aa547715c4df694144393752--><g id="cluster_ba39a5f0aa547715c4df694144393752"><polygon fill="none" points="33,16,43,6,391,6,391,163.49,381,173.49,33,173.49,33,16" style="stroke:#181818;stroke-width:1.0;"/><line style="stroke:#181818;stroke-width:1.0;" x1="381" x2="391" y1="16" y2="6"/><line style="stroke:#181818;stroke-width:1.0;" x1="33" x2="381" y1="16" y2="16"/><line style="stroke:#181818;stroke-width:1.0;" x1="381" x2="381" y1="16" y2="173.49"/><text fill="#000000" font-family="sans-serif" font-size="14" font-weight="bold" lengthAdjust="spacing" textLength="92" x="162" y="31.9951">Apigateway</text></g><!--cluster 04a7da3c5b04cad85da1eebb92315b8b--><g id="cluster_04a7da3c5b04cad85da1eebb92315b8b"><polygon fill="none" points="50,207.49,60,197.49,374,197.49,374,354.97,364,364.97,50,364.97,50,207.49" style="stroke:#181818;stroke-width:1.0;"/><line style="stroke:#181818;stroke-width:1.0;" x1="364" x2="374" y1="207.49" y2="197.49"/><line style="stroke:#181818;stroke-width:1.0;" x1="50" x2="364" y1="207.49" y2="207.49"/><line style="stroke:#181818;stroke-width:1.0;" x1="364" x2="364" y1="207.49" y2="364.97"/><text fill="#000000" font-family="sans-serif" font-size="14" font-weight="bold" lengthAdjust="spacing" textLength="61" x="177.5" y="223.4851">Lambda</text></g><!--cluster 6ebb7423072c5943f52c11274fd71b0b--><g id="cluster_6ebb7423072c5943f52c11274fd71b0b"><polygon fill="none" points="16,398.97,26,388.97,342,388.97,342,546.46,332,556.46,16,556.46,16,398.97" style="stroke:#181818;stroke-width:1.0;"/><line style="stroke:#181818;stroke-width:1.0;" x1="332" x2="342" y1="398.97" y2="388.97"/><line style="stroke:#181818;stroke-width:1.0;" x1="16" x2="332" y1="398.97" y2="398.97"/><line style="stroke:#181818;stroke-width:1.0;" x1="332" x2="332" y1="398.97" y2="556.46"/><text fill="#000000" font-family="sans-serif" font-size="14" font-weight="bold" lengthAdjust="spacing" textLength="83" x="133.5" y="414.9651">Dynamodb</text></g><!--cluster 54afc4697cf03d8e3ec9a05b16380622--><g id="cluster_54afc4697cf03d8e3ec9a05b16380622"><polygon fill="none" points="82,590.46,92,580.46,442,580.46,442,737.94,432,747.94,82,747.94,82,590.46" style="stroke:#181818;stroke-width:1.0;"/><line style="stroke:#181818;stroke-width:1.0;" x1="432" x2="442" y1="590.46" y2="580.46"/><line style="stroke:#181818;stroke-width:1.0;" x1="82" x2="432" y1="590.46" y2="590.46"/><line style="stroke:#181818;stroke-width:1.0;" x1="432" x2="432" y1="590.46" y2="747.94"/><text fill="#000000" font-family="sans-serif" font-size="14" font-weight="bold" lengthAdjust="spacing" textLength="29" x="243.5" y="606.4551">Sns</text></g><!--entity 644b061eda94a1b76b575d3b386b9279--><g id="elem_644b061eda94a1b76b575d3b386b9279"><rect fill="#F1F1F1" height="111.4844" rx="2.5" ry="2.5" style="stroke:#181818;stroke-width:0.5;" width="325" x="49.5" y="46"/><rect fill="#F1F1F1" height="10" style="stroke:#181818;stroke-width:0.5;" width="15" x="354.5" y="51"/><rect fill="#F1F1F1" height="2" style="stroke:#181818;stroke-width:0.5;" width="4" x="352.5" y="53"/><rect fill="#F1F1F1" height="2" style="stroke:#181818;stroke-width:0.5;" width="4" x="352.5" y="57"/><text fill="#000000" font-family="sans-serif" font-size="14" font-weight="bold" lengthAdjust="spacing" textLength="244" x="64.5" y="78.9951">apigateway_humza-resume-api</text><text fill="#000000" font-family="sans-serif" font-size="14" lengthAdjust="spacing" textLength="4" x="64.5" y="95.292">&#160;</text><text fill="#000000" font-family="sans-serif" font-size="14" lengthAdjust="spacing" textLength="211" x="64.5" y="111.5889">terraform name: MyPortfolioAPI</text><text fill="#000000" font-family="sans-serif" font-size="14" lengthAdjust="spacing" textLength="285" x="64.5" y="127.8857">terraform type: aws_api_gateway_rest_api</text><text fill="#000000" font-family="sans-serif" font-size="14" lengthAdjust="spacing" textLength="4" x="64.5" y="144.1826">&#160;</text></g><!--entity f50c333c81cd160f6af52af6064e69ff--><g id="elem_f50c333c81cd160f6af52af6064e69ff"><rect fill="#F1F1F1" height="111.4844" rx="2.5" ry="2.5" style="stroke:#181818;stroke-width:0.5;" width="293" x="65.5" y="237.49"/><rect fill="#F1F1F1" height="10" style="stroke:#181818;stroke-width:0.5;" width="15" x="338.5" y="242.49"/><rect fill="#F1F1F1" height="2" style="stroke:#181818;stroke-width:0.5;" width="4" x="336.5" y="244.49"/><rect fill="#F1F1F1" height="2" style="stroke:#181818;stroke-width:0.5;" width="4" x="336.5" y="248.49"/><text fill="#000000" font-family="sans-serif" font-size="14" font-weight="bold" lengthAdjust="spacing" textLength="166" x="80.5" y="270.4851">lambda_update_visits</text><text fill="#000000" font-family="sans-serif" font-size="14" lengthAdjust="spacing" textLength="4" x="80.5" y="286.782">&#160;</text><text fill="#000000" font-family="sans-serif" font-size="14" lengthAdjust="spacing" textLength="205" x="80.5" y="303.0789">terraform name: update_visits</text><text fill="#000000" font-family="sans-serif" font-size="14" lengthAdjust="spacing" textLength="253" x="80.5" y="319.3757">terraform type: aws_lambda_function</text><text fill="#000000" font-family="sans-serif" font-size="14" lengthAdjust="spacing" textLength="4" x="80.5" y="335.6726">&#160;</text></g><!--entity f8bc09a4cb5c7dd80786a21b67b57952--><g id="elem_f8bc09a4cb5c7dd80786a21b67b57952"><rect fill="#F1F1F1" height="111.4844" rx="2.5" ry="2.5" style="stroke:#181818;stroke-width:0.5;" width="294" x="32" y="428.97"/><rect fill="#F1F1F1" height="10" style="stroke:#181818;stroke-width:0.5;" width="15" x="306" y="433.97"/><rect fill="#F1F1F1" height="2" style="stroke:#181818;stroke-width:0.5;" width="4" x="304" y="435.97"/><rect fill="#F1F1F1" height="2" style="stroke:#181818;stroke-width:0.5;" width="4" x="304" y="439.97"/><text fill="#000000" font-family="sans-serif" font-size="14" font-weight="bold" lengthAdjust="spacing" textLength="200" x="47" y="461.9651">dynamodb_db_visit_count</text><text fill="#000000" font-family="sans-serif" font-size="14" lengthAdjust="spacing" textLength="4" x="47" y="478.262">&#160;</text><text fill="#000000" font-family="sans-serif" font-size="14" lengthAdjust="spacing" textLength="213" x="47" y="494.5589">terraform name: db_visit_count</text><text fill="#000000" font-family="sans-serif" font-size="14" lengthAdjust="spacing" textLength="254" x="47" y="510.8557">terraform type: aws_dynamodb_table</text><text fill="#000000" font-family="sans-serif" font-size="14" lengthAdjust="spacing" textLength="4" x="47" y="527.1526">&#160;</text></g><!--entity 5ea3c74b388ad461468ffc617617fdbc--><g id="elem_5ea3c74b388ad461468ffc617617fdbc"><rect fill="#F1F1F1" height="111.4844" rx="2.5" ry="2.5" style="stroke:#181818;stroke-width:0.5;" width="328" x="98" y="620.46"/><rect fill="#F1F1F1" height="10" style="stroke:#181818;stroke-width:0.5;" width="15" x="406" y="625.46"/><rect fill="#F1F1F1" height="2" style="stroke:#181818;stroke-width:0.5;" width="4" x="404" y="627.46"/><rect fill="#F1F1F1" height="2" style="stroke:#181818;stroke-width:0.5;" width="4" x="404" y="631.46"/><text fill="#000000" font-family="sans-serif" font-size="14" font-weight="bold" lengthAdjust="spacing" textLength="288" x="113" y="653.4551">sns_pagerduty-aws-humza-resume2</text><text fill="#000000" font-family="sans-serif" font-size="14" lengthAdjust="spacing" textLength="4" x="113" y="669.752">&#160;</text><text fill="#000000" font-family="sans-serif" font-size="14" lengthAdjust="spacing" textLength="217" x="113" y="686.0489">terraform name: pagerduty-aws</text><text fill="#000000" font-family="sans-serif" font-size="14" lengthAdjust="spacing" textLength="206" x="113" y="702.3457">terraform type: aws_sns_topic</text><text fill="#000000" font-family="sans-serif" font-size="14" lengthAdjust="spacing" textLength="4" x="113" y="718.6426">&#160;</text></g><!--link 644b061eda94a1b76b575d3b386b9279 to f50c333c81cd160f6af52af6064e69ff--><g id="link_644b061eda94a1b76b575d3b386b9279_f50c333c81cd160f6af52af6064e69ff"><path codeLine="38" d="M212,157.81 C212,182.72 212,212.1 212,237.03 " fill="none" id="644b061eda94a1b76b575d3b386b9279-f50c333c81cd160f6af52af6064e69ff" style="stroke:#181818;stroke-width:1.0;"/></g><!--link f50c333c81cd160f6af52af6064e69ff to f8bc09a4cb5c7dd80786a21b67b57952--><g id="link_f50c333c81cd160f6af52af6064e69ff_f8bc09a4cb5c7dd80786a21b67b57952"><path codeLine="39" d="M202.41,349.29 C198.07,374.2 192.95,403.59 188.61,428.51 " fill="none" id="f50c333c81cd160f6af52af6064e69ff-f8bc09a4cb5c7dd80786a21b67b57952" style="stroke:#181818;stroke-width:1.0;"/></g><!--link f50c333c81cd160f6af52af6064e69ff to 5ea3c74b388ad461468ffc617617fdbc--><g id="link_f50c333c81cd160f6af52af6064e69ff_5ea3c74b388ad461468ffc617617fdbc"><path codeLine="40" d="M316.93,349.38 C326.92,358.62 335.67,369.13 342,380.97 C380.46,452.88 367.09,486.86 342,564.46 C335.61,584.2 324.25,603.39 312.05,620.09 " fill="none" id="f50c333c81cd160f6af52af6064e69ff-5ea3c74b388ad461468ffc617617fdbc" style="stroke:#181818;stroke-width:1.0;"/></g><!--link f8bc09a4cb5c7dd80786a21b67b57952 to 5ea3c74b388ad461468ffc617617fdbc--><g id="link_f8bc09a4cb5c7dd80786a21b67b57952_5ea3c74b388ad461468ffc617617fdbc"><path codeLine="41" d="M203.12,540.77 C214.03,565.69 226.9,595.07 237.82,620 " fill="none" id="f8bc09a4cb5c7dd80786a21b67b57952-5ea3c74b388ad461468ffc617617fdbc" style="stroke:#181818;stroke-width:1.0;"/></g><!--SRC=[ZPBDQjmm58NtUWgJvO11ilwp2tGJI27GPIdcwczgi2LZovrEIz-z6dSQPeB10Qqa-VFvT0_qVJeDtSyk7b5CpbSFJsDtXEnFS7weOAuCK0qyO03Ef2JSCXU4PeGnggdaJVKRLJODOue-vaemPh0Wte5cG8mKXalkgA5A6Dr8NNr5XmEy_Q7zlWo_e9xyl0o-Blk70qBPJnE4D0rLXC4_Lf_FhsdA8VLTUdfzlZdEvx4SmsbkovVjVsI1vSi6Gj_GdwlJ2mp6mUg36KW7r7A3cGMdk0FYlIdfAE56cNkVmB6bb5f5h2C21m61Dn045imB7SBgqw_qTXbTYT3-wEOkpriYTnSsFQwai4IRknHl5JwT2oGviqg84bYoXcBPMAuPBQ4i8OramKbYy7i9PIpMmApXLZgdi5G26cA4BDFHPOGN2NVbjsMj2LkRbfYtFEvlR8gyqJAOtjzwV8dpgi0P1Ck4bZPWwfIdtch0t1115HRDkrvnNqOcMUcH0iS4OKA5O0MHPGLdxAemnxaTuUWdj-HpNMBKj_LgjbJkhc-QNA0vZPtz9x5RyDhLkwr1kxLQAJjZ-nXbx-NGRZi-GlaB]--></g></svg>